<svg t="1596522279937" class="icon" viewBox="0 0 1024 1024" version="1.1" xmlns="http://www.w3.org/2000/svg" p-id="23381" width="200" height="200"><path d="M807.626 928.174H216.572c-66.47 0-120.547-54.077-120.547-120.548v-583.47c0-66.47 54.077-120.548 120.547-120.548h591.054c66.471 0 120.548 54.078 120.548 120.548v583.47c0 66.471-54.077 120.548-120.548 120.548zM216.572 167.608c-31.18 0-56.547 25.367-56.547 56.548v583.47c0 31.181 25.367 56.548 56.547 56.548h591.054c31.181 0 56.548-25.367 56.548-56.548v-583.47c0-31.181-25.367-56.548-56.548-56.548H216.572z" fill="#ee8270" p-id="23382"></path><path d="M692.081 665.584H276.602c-17.673 0-32-14.327-32-32s14.327-32 32-32h415.479c17.673 0 32 14.327 32 32s-14.327 32-32 32zM531.587 799.802H281.101c-17.673 0-32-14.327-32-32s14.327-32 32-32h250.486c17.673 0 32 14.327 32 32s-14.327 32-32 32zM274.832 484.64c-7.772 0-15.431-3.612-20.316-10.404-8.063-11.208-5.512-26.831 5.697-34.893l146.865-105.64c11.21-8.063 26.832-5.511 34.893 5.697 8.063 11.208 5.512 26.831-5.697 34.893l-146.865 105.64a24.891 24.891 0 0 1-14.577 4.707z" fill="#ee8270" p-id="23383"></path><path d="M481.816 475.723c-8.325 0-16.462-4.154-21.208-11.729l-59.259-94.573c-7.332-11.7-3.79-27.128 7.91-34.459 11.702-7.332 27.128-3.79 34.459 7.91l59.259 94.573c7.332 11.7 3.79 27.128-7.91 34.459a24.89 24.89 0 0 1-13.251 3.819z" fill="#ee8270" p-id="23384"></path><path d="M493.406 497.093c-7.38 0-14.687-3.252-19.622-9.488-8.567-10.828-6.735-26.551 4.092-35.118l166.187-131.495c10.827-8.568 26.552-6.735 35.118 4.092 8.567 10.828 6.734 26.55-4.093 35.118L508.902 491.697a24.895 24.895 0 0 1-15.496 5.396z" fill="#ee8270" p-id="23385"></path><path d="M682.956 325.741c-1.05 0-2.11-0.066-3.18-0.202l-119.632-15.187c-13.697-1.739-23.392-14.252-21.652-27.949 1.738-13.697 14.246-23.389 27.949-21.652l119.632 15.187c13.697 1.739 23.392 14.252 21.652 27.949-1.602 12.627-12.365 21.854-24.769 21.854z" fill="#ee8270" p-id="23386"></path><path d="M705.212 450.859c-12.712 0-23.589-9.655-24.852-22.57l-11.729-120.021c-1.343-13.742 8.709-25.97 22.45-27.313 13.736-1.343 25.971 8.708 27.313 22.45l11.729 120.021c1.343 13.742-8.709 25.97-22.45 27.313a25.21 25.21 0 0 1-2.461 0.12z" fill="#ee8270" p-id="23387"></path></svg>