<svg t="1596590692342" class="icon" viewBox="0 0 1026 1024" version="1.1" xmlns="http://www.w3.org/2000/svg" p-id="11689" width="200" height="200"><path d="M641.024 255.488h-518.656l196.096-196.096c13.312-13.312 14.336-34.816 1.536-48.64-13.312-13.824-35.328-14.336-48.64-0.512l-260.608 260.608a33.9968 33.9968 0 0 0 0 48.128l259.584 259.584c13.312 13.312 34.816 14.336 48.64 1.536 13.824-13.312 14.336-35.328 0.512-48.64l-204.288-204.288h525.824c171.008 0 314.368 139.776 312.32 310.784-1.536 170.496-141.824 313.856-307.712 313.856h-443.904c-19.968 0-35.84 15.872-35.84 35.84s15.872 35.84 35.84 35.84h443.904c100.864 0 196.608-41.472 268.8-116.224 71.68-74.24 110.592-171.52 110.592-273.408-0.512-209.92-174.08-378.368-384-378.368z" p-id="11690"></path></svg>