<svg t="1597023273582" class="icon" viewBox="0 0 1024 1024" version="1.1" xmlns="http://www.w3.org/2000/svg" p-id="4053" width="200" height="200"><path d="M815.8 318.8L705.9 209c-19.5-19.5-19.5-51.2 0-70.7l59.7-59.7c19.5-19.5 51.2-19.5 70.7 0l109.8 109.8c19.5 19.5 19.5 51.2 0 70.7l-59.7 59.7c-19.5 19.6-51.1 19.6-70.6 0zM751.2 453.4c18.8-18.8 23.5-44.5 10.5-57.4L628.1 262.3c-12.9-12.9-38.6-8.2-57.4 10.5L81.3 749.2c-9.4 9.4-15.3 21.4-16.5 33.5l0.2 133.8c-2.4 25.2 17.4 45 42.6 42.6l133.8 1.1c12.1-1.2 24.2-7.1 33.5-16.5l476.3-490.3zM908.9 831.7H559.8c-13.4 0-26.2 5.3-35.6 14.8-17.1 17.2-45.3 46.3-68.8 70.7-15.2 15.8-4 42.1 17.9 42.1h435.3c28 0 50.9-22.9 50.9-50.9v-26.3c-0.2-27.7-22.8-50.4-50.6-50.4z" p-id="4054"></path></svg>