<svg t="1597895744603" class="icon" viewBox="0 0 1024 1024" version="1.1" xmlns="http://www.w3.org/2000/svg" p-id="2900" width="200" height="200"><path d="M994.048 857.7536a36.4544 36.4544 0 0 0-70.6048 17.8688c5.5808 22.2208 9.4208 44.9024 11.4176 67.8912H89.1904c18.432-216.1664 199.68-386.4576 420.2496-387.7888 0.8704 0 1.6896 0.256 2.56 0.256a256 256 0 1 0-256-256c0 84.8896 41.8304 159.5904 105.472 206.1824C160.7168 570.112 14.7968 758.272 14.7968 979.968c0 20.1216 16.3328 36.4544 36.4544 36.4544h921.6a36.4544 36.4544 0 0 0 36.4544-36.4544 498.5856 498.5856 0 0 0-15.2576-122.2144zM512 120.832c98.816 0 179.2 80.384 179.2 179.2s-80.384 179.2-179.2 179.2-179.2-80.384-179.2-179.2 80.384-179.2 179.2-179.2z" fill="#ffffff" p-id="2901"></path><path d="M877.2608 643.4816H512a38.4 38.4 0 0 0 0 76.8h365.2608l-67.2256 67.2256a38.4 38.4 0 0 0 54.272 54.3232l132.7616-132.7616a38.4 38.4 0 0 0 0-54.3232l-132.7616-132.7616a38.4 38.4 0 1 0-54.3232 54.3232l67.2768 67.1744z" fill="#ffffff" p-id="2902"></path></svg>