<svg t="1596521901773" class="icon" viewBox="0 0 1088 1024" version="1.1" xmlns="http://www.w3.org/2000/svg" p-id="14957" width="200" height="200"><path d="M100.096 22.848a48.448 48.448 0 0 0-48.32 48.32v354.752c0 26.56 21.76 48.256 48.32 48.256h354.752c26.56 0 48.256-21.76 48.256-48.256V71.168a48.448 48.448 0 0 0-48.256-48.32H100.096z m0 0a48.448 48.448 0 0 0-48.32 48.32v354.752c0 26.56 21.76 48.256 48.32 48.256h354.752c26.56 0 48.256-21.76 48.256-48.256V71.168a48.448 48.448 0 0 0-48.256-48.32H100.096zM583.68 233.152a48.448 48.448 0 0 0 0 68.288l204.8 204.8a48.448 48.448 0 0 0 68.352 0l204.8-204.8a48.448 48.448 0 0 0 0-68.288l-204.8-204.8a48.448 48.448 0 0 0-68.288 0l-204.8 204.8z m0 0a48.448 48.448 0 0 0 0 68.288l204.8 204.8a48.448 48.448 0 0 0 68.352 0l204.8-204.8a48.448 48.448 0 0 0 0-68.288l-204.8-204.8a48.448 48.448 0 0 0-68.288 0l-204.8 204.8z m68.544 338.304a48.448 48.448 0 0 0-48.256 48.256v354.752c0 26.56 21.76 48.256 48.256 48.256h354.752c26.56 0 48.32-21.696 48.32-48.256V619.712a48.448 48.448 0 0 0-48.32-48.32h-354.752z m0 0a48.448 48.448 0 0 0-48.256 48.256v354.752c0 26.56 21.76 48.256 48.256 48.256h354.752c26.56 0 48.32-21.696 48.32-48.256V619.712a48.448 48.448 0 0 0-48.32-48.32h-354.752z m-552.192 0a48.448 48.448 0 0 0-48.32 48.256v354.752c0 26.56 21.76 48.256 48.32 48.256h354.752c26.56 0 48.256-21.696 48.256-48.256V619.712a48.448 48.448 0 0 0-48.256-48.32H100.096z m0 0a48.448 48.448 0 0 0-48.32 48.256v354.752c0 26.56 21.76 48.256 48.32 48.256h354.752c26.56 0 48.256-21.696 48.256-48.256V619.712a48.448 48.448 0 0 0-48.256-48.32H100.096z" p-id="14958" fill="#ee8270"></path></svg>