<svg t="1597304307609" class="icon" viewBox="0 0 1024 1024" version="1.1" xmlns="http://www.w3.org/2000/svg" p-id="4508" width="200" height="200"><path d="M959.677 525.803L775.485 309.107 958.304 80.289c13.589-5.2 23.206-18.144 23.206-33.537 0-19.954-16.191-36.146-36.146-36.146H77.905c-19.955 0-36.147 16.192-36.147 114.646v862.415c0 20.166 20.41 35.055 36.147 34.979 19.947-0.096 36.14-16.193 36.14-36.146V595.123h821.271c12.217 4.123 26.098 1.592 35.854-8.097 7.302-7.297 10.413-16.844 9.978-26.313 0.071-0.65 0.362-1.152 0.362-1.659a36.157 36.157 0 0 0-21.833-33.251zM668 321.36c0 4.772-5.373 8.64-12 8.64H248c-6.627 0-12-3.868-12-8.64v-54.72c0-4.772 5.373-8.64 12-8.64h408c6.627 0 12 3.868 12 8.64v54.72z" fill="#ffffff" p-id="4509"></path></svg>