<svg t="1597304403683" class="icon" viewBox="0 0 1024 1024" version="1.1" xmlns="http://www.w3.org/2000/svg" p-id="6117" width="200" height="200"><path d="M919.813 483.875c-23.302 0-42.188 18.886-42.188 42.188v66.895L667.897 383.23l-83.883-83.883C576.378 291.725 565.831 287 554.187 287s-22.19 4.725-29.826 12.36L329.188 494.535 134.013 299.361C126.378 291.725 115.831 287 104.187 287 80.886 287 62 305.886 62 329.188a42.031 42.031 0 0 0 12.36 29.826l225 225c7.637 7.636 18.184 12.361 29.827 12.361 11.644 0 22.191-4.725 29.827-12.36l195.173-195.16 54.043 54.042 4.19 4.19 24.44 24.441 181.098 181.097h-66.895c-23.302 0-42.188 18.886-42.188 42.188 0 23.301 18.886 42.187 42.188 42.187h168.75C943.114 737 962 718.114 962 694.812v-168.75c0-23.301-18.886-42.187-42.188-42.187z" p-id="6118" fill="#ffffff"></path></svg>