<svg t="1597304370505" class="icon" viewBox="0 0 1934 1024" version="1.1" xmlns="http://www.w3.org/2000/svg" p-id="5311" width="200" height="200"><path d="M1698.082391 623.610945l-82.031317-86.354743-391.042491 411.635651a123.672734 123.672734 0 0 1-181.015014 0L648.286329 532.136356 218.44678 984.617004a123.55896 123.55896 0 0 1-180.90124 0 139.601145 139.601145 0 0 1 0-190.458287l520.176395-547.596016a123.445186 123.445186 0 0 1 180.90124 0l395.821014 416.527949 300.591871-316.292734-93.294979-98.301051c-33.677212-35.383827-18.317673-96.025564 27.760945-108.882067L1856.228758 2.28914c46.078618-12.970278 88.175133 31.28795 75.773726 79.75583l-130.385421 512.439738c-12.287631 48.354105-69.85746 64.623839-103.534672 29.126237" fill="#ffffff" p-id="5312"></path></svg>