<svg t="1596522002626" class="icon" viewBox="0 0 1024 1024" version="1.1" xmlns="http://www.w3.org/2000/svg" p-id="19449" width="200" height="200"><path d="M567.255809 1024H129.005032A89.401036 89.401036 0 0 1 39.869281 934.864249V89.135751A89.401036 89.401036 0 0 1 129.005032 0h721.04456a89.401036 89.401036 0 0 1 89.135751 89.135751v452.576166a26.528497 26.528497 0 1 1-53.056995 0V89.135751A36.078756 36.078756 0 0 0 850.049592 53.056995H129.005032A36.078756 36.078756 0 0 0 92.926276 89.135751v845.728498a36.078756 36.078756 0 0 0 36.078756 36.078756h438.250777a26.528497 26.528497 0 0 1 0 53.056995z" fill="#ee8270" p-id="19450"></path><path d="M976.855809 967.759585L862.252701 865.890155a197.106736 197.106736 0 1 0-30.242488 34.221762l114.603109 101.86943a20.692228 20.692228 0 0 0 29.446632-1.59171l2.65285-2.918134a20.692228 20.692228 0 0 0-1.856995-29.711918zM703.081716 911.784456a157.048705 157.048705 0 1 1 157.048705-157.048705A157.31399 157.31399 0 0 1 703.081716 911.784456z" fill="#ee8270" p-id="19451"></path><path d="M312.316949 187.556477m23.875648 0l466.370984 0q23.875648 0 23.875648 23.875647l0-0.265285q0 23.875648-23.875648 23.875648l-466.370984 0q-23.875648 0-23.875648-23.875648l0 0.265285q0-23.875648 23.875648-23.875647Z" fill="#ee8270" p-id="19452"></path><path d="M312.316949 439.577202m23.875648 0l460.004145 0q23.875648 0 23.875648 23.875648l0-0.265285q0 23.875648-23.875648 23.875647l-460.004145 0q-23.875648 0-23.875648-23.875647l0 0.265285q0-23.875648 23.875648-23.875648Z" fill="#ee8270" p-id="19453"></path><path d="M312.316949 696.638342m23.875648 0l91.523316 0q23.875648 0 23.875648 23.875648l0-0.265285q0 23.875648-23.875648 23.875647l-91.523316 0q-23.875648 0-23.875648-23.875647l0 0.265285q0-23.875648 23.875648-23.875648Z" fill="#ee8270" p-id="19454"></path><path d="M139.881716 696.638342m23.875648 0l54.118134 0q23.875648 0 23.875648 23.875648l0-0.265285q0 23.875648-23.875648 23.875647l-54.118134 0q-23.875648 0-23.875648-23.875647l0 0.265285q0-23.875648 23.875648-23.875648Z" fill="#ee8270" p-id="19455"></path><path d="M139.881716 439.577202m23.875648 0l54.118134 0q23.875648 0 23.875648 23.875648l0-0.265285q0 23.875648-23.875648 23.875647l-54.118134 0q-23.875648 0-23.875648-23.875647l0 0.265285q0-23.875648 23.875648-23.875648Z" fill="#ee8270" p-id="19456"></path><path d="M139.881716 187.556477m23.875648 0l54.118134 0q23.875648 0 23.875648 23.875647l0-0.265285q0 23.875648-23.875648 23.875648l-54.118134 0q-23.875648 0-23.875648-23.875648l0 0.265285q0-23.875648 23.875648-23.875647Z" fill="#ee8270" p-id="19457"></path></svg>